# xmcd
#
# Track frame offsets:
#	150
#	24357
#	45458
#	59677
#	74179
#	88113
#	103292
#	124150
#	143709
#	165368
#	182384
#
# Disc length: 2644 seconds
# Revision: 0
# Processed by: cddbd v1.5.2PL0 Copyright (c) Steve Scherf et al.
# Submitted via: dBpowerAMP V12.0
#
DISCID=990a520b
DTITLE=GT Hurley - War Horse
DYEAR=2014
DGENRE=Country
TTITLE0=War Horse
TTITLE1=Everclear Strong
TTITLE2=Fire On The Mountain
TTITLE3=Montana Wind
TTITLE4=Lipstick Buckaroo
TTITLE5=Sunrises And Sunsets
TTITLE6=Six String Mistress
TTITLE7=The Reminder
TTITLE8=When Love Enters The Game
TTITLE9=Horse Sweet And Texas Dirt
TTITLE10=Boots On The Ground
EXTD=
EXTT0=
EXTT1=
EXTT2=
EXTT3=
EXTT4=
EXTT5=
EXTT6=
EXTT7=
EXTT8=
EXTT9=
EXTT10=
PLAYORDER=
